<svg id="logo" width="240" height="41" viewBox="0 0 240 41" fill="none" xmlns="http://www.w3.org/2000/svg">
<path d="M138.306 8.89987V8.25686H138.794V7.70571L139.868 6.69526H141.039V7.15455H142.699L142.992 6.23596C141.195 5.57458 142.243 3.08214 142.992 1.91859L142.601 1.73487L142.894 1L147.385 2.74532L147.092 3.48019L146.702 3.38833C145.921 6.51154 144.359 6.69526 143.578 6.41968L143.382 7.15455H146.409L146.702 7.61385H149.24C149.787 7.61385 149.923 9.20607 149.923 10.0022H149.24L150.509 16.1567C150.379 16.2486 150.062 16.5724 149.63 16.7079C149.045 16.8916 148.166 16.7997 147.678 16.7079L147.971 15.8812L146.506 10.0022H145.335C145.335 12.6661 142.797 13.7684 142.504 13.6765C142.269 13.6031 142.406 13.3397 142.504 13.2172C144.066 12.6293 144.586 10.8289 144.651 10.0022H141.039V10.3696H139.868L138.794 9.54288V8.89987H138.306Z" fill="#131624" stroke="#131624"/>
<path d="M1.74066 24.1301C-0.246833 25.8157 -0.133511 29.2574 0.171587 30.7674L14.0318 30.346C13.1165 25.9211 14.1887 16.9238 25.7999 16.3338C37.411 15.7438 39.5293 25.4294 39.137 30.346C44.3673 26.9747 41.9265 19.5998 40.0523 16.3338C44.7197 17.6202 43.9337 17.9141 55.4816 17.9141C66.1607 17.9141 85.4248 15.4909 94.3162 12.857C101.028 10.7851 108.736 8.19115 100.854 10.3285C89.9751 13.2785 64.1551 12.3303 52.6049 11.4874C72.0876 0.00370371 92.4856 3.69114 107.784 8.64284C120.023 12.6042 128.313 12.1898 130.928 11.4874C134.458 10.4339 135.45 9.37679 132.497 10.3285C127.267 12.0142 108.83 6.32502 89.4782 2.1108C70.1263 -2.10341 56.0046 6.85179 50.9051 9.38032C46.8255 11.4031 44.5852 11.7684 43.975 11.6981C-5.1894 12.857 4.22503 22.023 1.74066 24.1301Z" fill="#131624"/>
<path d="M45.3885 37.6743V23.6743H51.4485C52.7018 23.6743 53.7818 23.881 54.6885 24.2943C55.5952 24.6943 56.2952 25.2743 56.7885 26.0343C57.2819 26.7943 57.5285 27.701 57.5285 28.7543C57.5285 29.7943 57.2819 30.6943 56.7885 31.4543C56.2952 32.2143 55.5952 32.801 54.6885 33.2143C53.7818 33.6143 52.7018 33.8143 51.4485 33.8143H47.1885L48.6285 32.3543V37.6743H45.3885ZM48.6285 32.7143L47.1885 31.1743H51.2685C52.2685 31.1743 53.0152 30.961 53.5085 30.5343C54.0018 30.1076 54.2485 29.5143 54.2485 28.7543C54.2485 27.981 54.0018 27.381 53.5085 26.9543C53.0152 26.5276 52.2685 26.3143 51.2685 26.3143H47.1885L48.6285 24.7743V32.7143ZM66.837 37.9143C65.7303 37.9143 64.7036 37.7343 63.757 37.3743C62.8236 37.0143 62.0103 36.5076 61.317 35.8543C60.637 35.201 60.1036 34.4343 59.717 33.5543C59.3436 32.6743 59.157 31.7143 59.157 30.6743C59.157 29.6343 59.3436 28.6743 59.717 27.7943C60.1036 26.9143 60.6436 26.1476 61.337 25.4943C62.0303 24.841 62.8436 24.3343 63.777 23.9743C64.7103 23.6143 65.7236 23.4343 66.817 23.4343C67.9236 23.4343 68.937 23.6143 69.857 23.9743C70.7903 24.3343 71.597 24.841 72.277 25.4943C72.9703 26.1476 73.5103 26.9143 73.897 27.7943C74.2836 28.661 74.477 29.621 74.477 30.6743C74.477 31.7143 74.2836 32.681 73.897 33.5743C73.5103 34.4543 72.9703 35.221 72.277 35.8743C71.597 36.5143 70.7903 37.0143 69.857 37.3743C68.937 37.7343 67.9303 37.9143 66.837 37.9143ZM66.817 35.1543C67.4436 35.1543 68.017 35.0476 68.537 34.8343C69.0703 34.621 69.537 34.3143 69.937 33.9143C70.337 33.5143 70.6436 33.041 70.857 32.4943C71.0836 31.9476 71.197 31.341 71.197 30.6743C71.197 30.0076 71.0836 29.401 70.857 28.8543C70.6436 28.3076 70.337 27.8343 69.937 27.4343C69.5503 27.0343 69.0903 26.7276 68.557 26.5143C68.0236 26.301 67.4436 26.1943 66.817 26.1943C66.1903 26.1943 65.6103 26.301 65.077 26.5143C64.557 26.7276 64.097 27.0343 63.697 27.4343C63.297 27.8343 62.9836 28.3076 62.757 28.8543C62.5436 29.401 62.437 30.0076 62.437 30.6743C62.437 31.3276 62.5436 31.9343 62.757 32.4943C62.9836 33.041 63.2903 33.5143 63.677 33.9143C64.077 34.3143 64.5436 34.621 65.077 34.8343C65.6103 35.0476 66.1903 35.1543 66.817 35.1543ZM79.812 34.4743L79.632 30.7343L86.332 23.6743H89.932L83.892 30.1743L82.092 32.0943L79.812 34.4743ZM76.912 37.6743V23.6743H80.132V37.6743H76.912ZM86.492 37.6743L81.512 31.5743L83.632 29.2743L90.272 37.6743H86.492ZM91.7166 37.6743V23.6743H97.7766C99.03 23.6743 100.11 23.881 101.017 24.2943C101.923 24.6943 102.623 25.2743 103.117 26.0343C103.61 26.7943 103.857 27.701 103.857 28.7543C103.857 29.7943 103.61 30.6943 103.117 31.4543C102.623 32.201 101.923 32.7743 101.017 33.1743C100.11 33.5743 99.03 33.7743 97.7766 33.7743H93.5166L94.9566 32.3543V37.6743H91.7166ZM100.617 37.6743L97.1166 32.5943H100.577L104.117 37.6743H100.617ZM94.9566 32.7143L93.5166 31.1943H97.5966C98.5966 31.1943 99.3433 30.981 99.8366 30.5543C100.33 30.1143 100.577 29.5143 100.577 28.7543C100.577 27.981 100.33 27.381 99.8366 26.9543C99.3433 26.5276 98.5966 26.3143 97.5966 26.3143H93.5166L94.9566 24.7743V32.7143ZM104.584 37.6743L110.824 23.6743H114.024L120.284 37.6743H116.884L111.764 25.3143H113.044L107.904 37.6743H104.584ZM107.704 34.6743L108.564 32.2143H115.764L116.644 34.6743H107.704ZM126.336 37.9143C125.216 37.9143 124.143 37.7676 123.116 37.4743C122.09 37.1676 121.263 36.7743 120.636 36.2943L121.736 33.8543C122.336 34.281 123.043 34.6343 123.856 34.9143C124.683 35.181 125.516 35.3143 126.356 35.3143C126.996 35.3143 127.51 35.2543 127.896 35.1343C128.296 35.001 128.59 34.821 128.776 34.5943C128.963 34.3676 129.056 34.1076 129.056 33.8143C129.056 33.441 128.91 33.1476 128.616 32.9343C128.323 32.7076 127.936 32.5276 127.456 32.3943C126.976 32.2476 126.443 32.1143 125.856 31.9943C125.283 31.861 124.703 31.701 124.116 31.5143C123.543 31.3276 123.016 31.0876 122.536 30.7943C122.056 30.501 121.663 30.1143 121.356 29.6343C121.063 29.1543 120.916 28.541 120.916 27.7943C120.916 26.9943 121.13 26.2676 121.556 25.6143C121.996 24.9476 122.65 24.421 123.516 24.0343C124.396 23.6343 125.496 23.4343 126.816 23.4343C127.696 23.4343 128.563 23.541 129.416 23.7543C130.27 23.9543 131.023 24.261 131.676 24.6743L130.676 27.1343C130.023 26.761 129.37 26.4876 128.716 26.3143C128.063 26.1276 127.423 26.0343 126.796 26.0343C126.17 26.0343 125.656 26.1076 125.256 26.2543C124.856 26.401 124.57 26.5943 124.396 26.8343C124.223 27.061 124.136 27.3276 124.136 27.6343C124.136 27.9943 124.283 28.2876 124.576 28.5143C124.87 28.7276 125.256 28.901 125.736 29.0343C126.216 29.1676 126.743 29.301 127.316 29.4343C127.903 29.5676 128.483 29.721 129.056 29.8943C129.643 30.0676 130.176 30.301 130.656 30.5943C131.136 30.8876 131.523 31.2743 131.816 31.7543C132.123 32.2343 132.276 32.841 132.276 33.5743C132.276 34.361 132.056 35.081 131.616 35.7343C131.176 36.3876 130.516 36.9143 129.636 37.3143C128.77 37.7143 127.67 37.9143 126.336 37.9143ZM139.534 33.2943V30.7943H145.194V33.2943H139.534ZM160.233 37.9143C159.153 37.9143 158.146 37.741 157.213 37.3943C156.293 37.0343 155.493 36.5276 154.813 35.8743C154.133 35.221 153.6 34.4543 153.213 33.5743C152.84 32.6943 152.653 31.7276 152.653 30.6743C152.653 29.621 152.84 28.6543 153.213 27.7743C153.6 26.8943 154.133 26.1276 154.813 25.4743C155.506 24.821 156.313 24.321 157.233 23.9743C158.153 23.6143 159.16 23.4343 160.253 23.4343C161.466 23.4343 162.56 23.6476 163.533 24.0743C164.52 24.4876 165.346 25.101 166.013 25.9143L163.933 27.8343C163.453 27.2876 162.92 26.881 162.333 26.6143C161.746 26.3343 161.106 26.1943 160.413 26.1943C159.76 26.1943 159.16 26.301 158.613 26.5143C158.066 26.7276 157.593 27.0343 157.193 27.4343C156.793 27.8343 156.48 28.3076 156.253 28.8543C156.04 29.401 155.933 30.0076 155.933 30.6743C155.933 31.341 156.04 31.9476 156.253 32.4943C156.48 33.041 156.793 33.5143 157.193 33.9143C157.593 34.3143 158.066 34.621 158.613 34.8343C159.16 35.0476 159.76 35.1543 160.413 35.1543C161.106 35.1543 161.746 35.021 162.333 34.7543C162.92 34.4743 163.453 34.0543 163.933 33.4943L166.013 35.4143C165.346 36.2276 164.52 36.8476 163.533 37.2743C162.56 37.701 161.46 37.9143 160.233 37.9143ZM171.181 29.3143H177.921V31.8343H171.181V29.3143ZM171.421 35.0743H179.041V37.6743H168.201V23.6743H178.781V26.2743H171.421V35.0743ZM181.619 37.6743V23.6743H184.299L192.559 33.7543H191.259V23.6743H194.459V37.6743H191.799L183.519 27.5943H184.819V37.6743H181.619ZM200.671 37.6743V26.3143H196.191V23.6743H208.391V26.3143H203.911V37.6743H200.671ZM213.115 29.3143H219.855V31.8343H213.115V29.3143ZM213.355 35.0743H220.975V37.6743H210.135V23.6743H220.715V26.2743H213.355V35.0743ZM223.553 37.6743V23.6743H229.613C230.866 23.6743 231.946 23.881 232.853 24.2943C233.759 24.6943 234.459 25.2743 234.953 26.0343C235.446 26.7943 235.693 27.701 235.693 28.7543C235.693 29.7943 235.446 30.6943 234.953 31.4543C234.459 32.201 233.759 32.7743 232.853 33.1743C231.946 33.5743 230.866 33.7743 229.613 33.7743H225.353L226.793 32.3543V37.6743H223.553ZM232.453 37.6743L228.953 32.5943H232.413L235.953 37.6743H232.453ZM226.793 32.7143L225.353 31.1943H229.433C230.433 31.1943 231.179 30.981 231.673 30.5543C232.166 30.1143 232.413 29.5143 232.413 28.7543C232.413 27.981 232.166 27.381 231.673 26.9543C231.179 26.5276 230.433 26.3143 229.433 26.3143H225.353L226.793 24.7743V32.7143Z" fill="#131624"/>
</svg>
