<svg width="40" height="40" id="goal" viewBox="0 0 40 40" fill="none" xmlns="http://www.w3.org/2000/svg">
<g clip-path="url(#clip0_61_217)">
<path d="M18.1415 6.53739C10.6784 7.06462 4.83301 13.2851 4.83301 20.8341C4.83301 28.7373 11.2627 35.167 19.1658 35.167C26.454 35.167 32.5754 29.7146 33.4047 22.4843C33.4146 22.3974 33.4074 22.3093 33.3833 22.2251C33.3593 22.1409 33.3189 22.0623 33.2644 21.9938C33.21 21.9252 33.1426 21.8681 33.066 21.8256C32.9895 21.7831 32.9053 21.7561 32.8184 21.7461C32.7314 21.7361 32.6433 21.7434 32.5591 21.7674C32.475 21.7915 32.3964 21.8319 32.3278 21.8863C32.2592 21.9408 32.2021 22.0082 32.1596 22.0847C32.1171 22.1613 32.0901 22.2454 32.0801 22.3324C31.3281 28.8893 25.7762 33.8337 19.1659 33.8337C11.9979 33.8337 6.16638 28.0021 6.16638 20.8341C6.16638 14.0412 11.4679 8.34549 18.2356 7.86734C18.412 7.85487 18.5762 7.77286 18.6921 7.63934C18.808 7.50582 18.8661 7.33173 18.8536 7.15536C18.8276 6.78813 18.5085 6.51097 18.1415 6.53739Z" fill="#F9FAFF"/>
<path d="M38.2499 7.19058C38.0751 7.16943 37.8991 7.21828 37.7602 7.32646C37.6213 7.43465 37.5308 7.59338 37.5085 7.76802C37.4862 7.94266 37.5339 8.11903 37.6412 8.25862C37.7485 8.39822 37.9067 8.48971 38.0812 8.51312C38.531 8.57045 38.7951 9.05027 38.5994 9.45417C37.1069 12.535 34.9389 15.3391 32.0802 17.6293C31.9317 17.7483 31.7371 17.797 31.5462 17.7628C29.3985 17.3781 28.5732 16.9431 26.5509 16.4999L28.2929 14.7751C29.1648 15.2262 30.061 15.6175 30.9637 15.9395C31.3082 16.0627 31.6911 15.8844 31.8155 15.5356C31.845 15.4532 31.8578 15.3657 31.8535 15.2783C31.8491 15.1908 31.8275 15.1051 31.79 15.026C31.7525 14.9469 31.6998 14.876 31.6349 14.8172C31.57 14.7585 31.4941 14.7131 31.4116 14.6837C30.6979 14.4291 29.9881 14.1278 29.2921 13.7858L32.4434 10.6658C33.3648 11.0814 34.3095 11.4303 35.2578 11.7042C35.6109 11.8059 35.9808 11.6033 36.0832 11.2487C36.1075 11.1646 36.115 11.0765 36.1053 10.9895C36.0955 10.9025 36.0687 10.8183 36.0264 10.7416C35.9841 10.665 35.9272 10.5974 35.8588 10.5428C35.7903 10.4881 35.7118 10.4475 35.6277 10.4232C34.9011 10.2133 34.1765 9.95557 33.4636 9.65558L35.0111 8.12347C36.56 6.58985 34.9893 4.19794 33.1437 4.37185L32.8093 1.75011C32.6389 0.414322 31.204 -0.399816 29.9644 0.200746C26.5829 1.83894 23.6778 4.15552 21.3301 7.08617C20.9704 7.53507 20.8227 8.11913 20.9247 8.68886C21.1359 9.86782 21.364 10.6742 21.6657 11.7097C21.7162 11.8782 21.8312 12.02 21.9858 12.1041C22.1404 12.1882 22.3219 12.2077 22.4908 12.1585C22.6598 12.1093 22.8024 11.9953 22.8876 11.8414C22.9728 11.6874 22.9937 11.5061 22.9458 11.3368C22.6512 10.3257 22.4398 9.58575 22.237 8.45387C22.2029 8.26304 22.2515 8.06847 22.3706 7.91989C24.5935 5.14515 27.344 2.95173 30.5458 1.4007C30.9489 1.20546 31.4293 1.46845 31.4868 1.91894L31.8782 4.98724L30.3441 6.53661C30.1081 5.97702 29.898 5.40685 29.7144 4.82792C29.6881 4.74444 29.6455 4.66697 29.5892 4.59994C29.5329 4.53291 29.4639 4.47763 29.3862 4.43725C29.3085 4.39687 29.2237 4.37219 29.1365 4.36462C29.0492 4.35704 28.9614 4.36672 28.8779 4.3931C28.7944 4.41948 28.7169 4.46204 28.6499 4.51836C28.5829 4.57467 28.5276 4.64364 28.4872 4.72132C28.4469 4.799 28.4222 4.88388 28.4146 4.9711C28.407 5.05831 28.4167 5.14617 28.4431 5.22965C28.6902 6.01187 28.9897 6.79243 29.3343 7.55649L26.2142 10.7079C25.8991 10.0682 25.618 9.41239 25.372 8.74311C25.3093 8.57968 25.1848 8.44748 25.0254 8.37504C24.8661 8.30261 24.6846 8.29575 24.5203 8.35596C24.3559 8.41617 24.2218 8.5386 24.1469 8.69684C24.072 8.85507 24.0624 9.0364 24.1201 9.20168C24.43 10.0478 24.8012 10.8885 25.2248 11.7072L20.9152 16.0599C17.646 14.8561 14.0828 17.2676 14.0828 20.8342C14.0828 23.637 16.363 25.9173 19.1659 25.9173C21.1208 25.9173 22.9249 24.7752 23.7621 23.0076C23.7996 22.9285 23.8211 22.8428 23.8254 22.7553C23.8298 22.6679 23.8168 22.5805 23.7874 22.498C23.7579 22.4156 23.7125 22.3397 23.6538 22.2748C23.595 22.2099 23.524 22.1573 23.4449 22.1198C23.2851 22.0441 23.1018 22.035 22.9353 22.0945C22.7688 22.154 22.6328 22.2772 22.5571 22.437C21.9394 23.7413 20.6083 24.5841 19.1659 24.5841C17.0982 24.5841 15.416 22.9019 15.416 20.8343C15.416 18.4469 17.595 16.7317 19.8415 17.1445L17.7824 19.2242C16.6752 20.3425 17.2763 22.0515 18.6102 22.6253C18.9502 22.7715 19.3413 22.6128 19.486 22.2764C19.5558 22.114 19.5583 21.9305 19.4929 21.7662C19.4275 21.602 19.2995 21.4705 19.1371 21.4006C18.8461 21.2754 18.6042 20.9888 18.5487 20.7036C18.5095 20.502 18.5687 20.3249 18.7298 20.1622C34.2787 4.45885 32.7349 5.99604 32.9972 5.78946C33.4828 5.49714 34.1419 5.95604 34.2819 6.48202C34.3509 6.74168 34.2827 6.96876 34.0731 7.17633L21.0128 20.107C20.8892 20.2319 20.8198 20.4004 20.8198 20.5761C20.8198 20.7517 20.8891 20.9203 21.0127 21.0451C21.1363 21.1699 21.3041 21.2409 21.4798 21.2427C21.6554 21.2445 21.8247 21.1768 21.9507 21.0545L25.4082 17.6314C25.9078 17.7215 26.4044 17.828 26.8971 17.9506C28.8571 23.197 25.0616 29.0838 19.1659 29.0838C14.617 29.0838 10.9162 25.383 10.9162 20.8341C10.9162 16.1767 14.7574 12.4463 19.4196 12.5882C19.5071 12.5911 19.5944 12.5766 19.6763 12.5456C19.7582 12.5146 19.8333 12.4678 19.897 12.4077C19.9608 12.3477 20.0121 12.2756 20.048 12.1957C20.0839 12.1158 20.1036 12.0296 20.106 11.942C20.1087 11.8545 20.0941 11.7673 20.063 11.6855C20.032 11.6036 19.9851 11.5287 19.9251 11.4649C19.8651 11.4012 19.7931 11.3499 19.7133 11.3139C19.6334 11.278 19.5473 11.2582 19.4598 11.2555C14.0495 11.0934 9.58291 15.4176 9.58291 20.8341C9.58291 26.1182 13.8818 30.4171 19.1659 30.4171C25.4698 30.4171 30.0373 24.4205 28.4299 18.3749C29.2513 18.6141 30.1095 18.86 31.3111 19.0752C31.8785 19.1768 32.4632 19.0307 32.9137 18.6698C34.0996 17.7202 35.1969 16.6649 36.1921 15.517C39.7706 26.9776 31.169 38.6667 19.1658 38.6667C9.33284 38.6667 1.33312 30.667 1.33312 20.834C1.33312 10.1196 10.7517 1.76377 21.4744 3.14931C21.6494 3.1712 21.8259 3.12288 21.9653 3.01491C22.1048 2.90694 22.1957 2.74813 22.2183 2.57324C22.2409 2.39835 22.1933 2.22163 22.0859 2.08177C21.9785 1.94192 21.82 1.85031 21.6452 1.82702C10.1472 0.341241 0 9.27876 0 20.834C0 31.4265 8.57203 40 19.166 40C29.7584 40 38.332 31.428 38.332 20.834C38.332 18.5849 37.9464 16.387 37.1866 14.2946C38.1901 12.9755 39.0637 11.554 39.7993 10.0354C40.3975 8.80069 39.5909 7.36158 38.2499 7.19058Z" fill="#F9FAFF"/>
</g>
<defs>
<clipPath id="clip0_61_217">
<rect width="40" height="40" fill="white"/>
</clipPath>
</defs>
</svg>
