<svg width="40" height="40" id="guarantee" viewBox="0 0 40 40" fill="none" xmlns="http://www.w3.org/2000/svg">
<g clip-path="url(#clip0_202_280)">
<path d="M31.5023 32.6712V39.3335C31.5023 39.5103 31.4321 39.6798 31.3071 39.8048C31.1821 39.9298 31.0126 40 30.8358 40H2.67632C2.49955 40 2.33003 39.9298 2.20503 39.8048C2.08004 39.6798 2.00982 39.5103 2.00982 39.3335C2.00982 5.53367 1.97233 7.66621 2.08613 7.4491C2.16653 7.29547 9.31421 0.171363 9.3887 0.121792C9.64621 -0.0498309 8.36071 0.0101538 30.8358 0.0101538C31.0126 0.0101538 31.1821 0.0803739 31.3071 0.205366C31.4321 0.330359 31.5023 0.499885 31.5023 0.676651V7.05945C31.5023 7.23621 31.4321 7.40574 31.3071 7.53073C31.1821 7.65572 31.0126 7.72594 30.8358 7.72594C30.6591 7.72594 30.4895 7.65572 30.3645 7.53073C30.2395 7.40574 30.1693 7.23621 30.1693 7.05945V1.34315H10.0339L4.28541 7.09169H9.09144V5.05054C9.09144 4.87377 9.16166 4.70425 9.28665 4.57925C9.41164 4.45426 9.58117 4.38404 9.75794 4.38404C9.9347 4.38404 10.1042 4.45426 10.2292 4.57925C10.3542 4.70425 10.4244 4.87377 10.4244 5.05054V7.75818C10.4244 7.93495 10.3542 8.10448 10.2292 8.22947C10.1042 8.35446 9.9347 8.42468 9.75794 8.42468H3.3429V38.667H30.1694V32.6712C30.1714 32.4957 30.2425 32.3281 30.3672 32.2047C30.492 32.0813 30.6604 32.0121 30.8359 32.0121C31.0113 32.0121 31.1797 32.0813 31.3045 32.2047C31.4293 32.3281 31.5004 32.4957 31.5023 32.6712ZM37.4171 15.3934C37.2236 15.1533 37.1143 14.8565 37.1299 14.51C37.1851 13.28 36.3732 12.1543 35.1847 11.8326C34.8757 11.749 34.6082 11.5547 34.4332 11.2866C33.76 10.2556 32.4363 9.82557 31.2858 10.2639C30.9867 10.378 30.656 10.378 30.3569 10.2639C29.2556 9.84449 27.9316 10.2026 27.2021 11.2969C27.1 11.4493 26.8676 11.7218 26.4579 11.8326C25.2694 12.1543 24.4514 13.2803 24.5127 14.51C24.5343 14.9419 24.3618 15.187 24.2016 15.4237C23.4534 16.3814 23.4614 17.7541 24.2257 18.7029C24.5326 19.0838 24.5198 19.4858 24.5142 19.5625C24.506 19.6512 24.5157 19.7406 24.5426 19.8255C24.5695 19.9104 24.6132 19.989 24.671 20.0567C24.7288 20.1244 24.7996 20.1799 24.8792 20.2198C24.9588 20.2597 25.0456 20.2833 25.1344 20.2892C25.2233 20.295 25.3124 20.283 25.3965 20.2538C25.4807 20.2246 25.5581 20.1789 25.6243 20.1193C25.6905 20.0597 25.744 19.9875 25.7818 19.9068C25.8196 19.8262 25.8409 19.7388 25.8443 19.6498C25.8608 19.4053 25.8601 18.6068 25.2637 17.8666C24.8817 17.3923 24.8817 16.7039 25.2637 16.2296C25.6395 15.7636 25.8782 15.1279 25.8441 14.4436C25.8138 13.8353 26.2184 13.2784 26.8063 13.1192C27.4177 12.9538 27.941 12.5667 28.3084 12.0405C28.7157 11.4572 29.348 11.3059 29.8824 11.5095C30.4872 11.7402 31.1557 11.7402 31.7604 11.5095C32.3294 11.2925 32.9842 11.5055 33.3173 12.0154C33.6709 12.5574 34.2117 12.9504 34.8366 13.1192C35.4236 13.2781 35.828 13.8337 35.7989 14.441C35.7822 14.6788 35.7782 15.4839 36.3791 16.2296C36.7612 16.7039 36.7612 17.3923 36.3791 17.8665C35.9606 18.3861 35.7685 19.0297 35.7987 19.6526C35.8291 20.2608 35.4244 20.8178 34.8366 20.9769C34.2117 21.1458 33.6709 21.5387 33.3172 22.0808C32.9842 22.5907 32.3293 22.8034 31.7603 22.5866C31.1556 22.356 30.4871 22.356 29.8823 22.5866C29.3134 22.8034 28.6585 22.5907 28.3255 22.0808C28.1087 21.7487 27.8127 21.4694 27.5443 21.306C27.1632 21.0725 26.6585 21.2757 26.5508 21.7164C26.5223 21.8334 26.5312 21.3849 26.5312 28.5163C26.5312 29.9854 28.0611 30.9509 29.3864 30.3234L30.8213 29.644L32.2564 30.3234C33.5867 30.9535 35.1116 29.9795 35.1116 28.5163V25.8627C35.1116 25.6859 35.0414 25.5164 34.9164 25.3914C34.7914 25.2664 34.6218 25.1962 34.4451 25.1962C34.2683 25.1962 34.0988 25.2664 33.9738 25.3914C33.8488 25.5164 33.7786 25.6859 33.7786 25.8627V28.5163C33.7786 29.0064 33.2704 29.3286 32.8269 29.1187L31.1067 28.3041C31.0175 28.2619 30.9201 28.24 30.8214 28.24C30.7228 28.24 30.6253 28.2619 30.5362 28.3041L28.816 29.1187C28.373 29.3283 27.8643 29.007 27.8643 28.5163V23.4953C28.5702 24.0066 29.5103 24.1548 30.3569 23.8323C31.0861 23.5546 31.3035 24.0028 32.2146 24.0028C33.0877 24.0028 33.9372 23.5693 34.4332 22.8096C34.6082 22.5415 34.8757 22.3471 35.1847 22.2636C36.3235 21.9554 37.1831 20.8859 37.13 19.5735C37.1229 19.3901 37.1508 19.0333 37.4171 18.7027C38.1895 17.7441 38.1895 16.3522 37.4171 15.3934ZM8.75811 15.3396H17.7558C17.9326 15.3396 18.1021 15.2694 18.2271 15.1444C18.3521 15.0194 18.4223 14.8499 18.4223 14.6731C18.4223 14.4963 18.3521 14.3268 18.2271 14.2018C18.1021 14.0768 17.9326 14.0066 17.7558 14.0066H8.75811C8.58134 14.0066 8.41181 14.0768 8.28682 14.2018C8.16183 14.3268 8.09161 14.4963 8.09161 14.6731C8.09161 14.8499 8.16183 15.0194 8.28682 15.1444C8.41181 15.2694 8.58134 15.3396 8.75811 15.3396ZM8.75811 22.0046H20.2552C20.4319 22.0046 20.6015 21.9343 20.7265 21.8093C20.8515 21.6844 20.9217 21.5148 20.9217 21.3381C20.9217 21.1613 20.8515 20.9918 20.7265 20.8668C20.6015 20.7418 20.4319 20.6716 20.2552 20.6716H8.75811C8.58134 20.6716 8.41181 20.7418 8.28682 20.8668C8.16183 20.9918 8.09161 21.1613 8.09161 21.3381C8.09161 21.5148 8.16183 21.6844 8.28682 21.8093C8.41181 21.9343 8.58134 22.0046 8.75811 22.0046ZM8.75811 28.6695H21.0883C21.2651 28.6695 21.4346 28.5993 21.5596 28.4743C21.6846 28.3493 21.7548 28.1798 21.7548 28.003C21.7548 27.8263 21.6846 27.6567 21.5596 27.5318C21.4346 27.4068 21.2651 27.3365 21.0883 27.3365H8.75811C8.58134 27.3365 8.41181 27.4068 8.28682 27.5318C8.16183 27.6567 8.09161 27.8263 8.09161 28.003C8.09161 28.1798 8.16183 28.3493 8.28682 28.4743C8.41181 28.5993 8.58134 28.6695 8.75811 28.6695Z" fill="#F9FAFF"/>
</g>
<defs>
<clipPath id="clip0_202_280">
<rect width="40" height="40" fill="white"/>
</clipPath>
</defs>
</svg>
