<svg width="40" height="40" viewBox="0 0 40 40" fill="none" xmlns="http://www.w3.org/2000/svg">
<g clip-path="url(#clip0_202_226)">
<path d="M20.283 18.9062L9.32325 29.8659C9.19822 29.9909 9.12798 30.1605 9.12798 30.3373C9.12798 30.5141 9.19822 30.6837 9.32325 30.8087C9.44827 30.9337 9.61784 31.0039 9.79465 31.0039C9.97146 31.0039 10.141 30.9337 10.2661 30.8087L21.2258 19.849C21.3508 19.724 21.4211 19.5544 21.4211 19.3776C21.4211 19.2008 21.3508 19.0312 21.2258 18.9062C21.1008 18.7812 20.9312 18.7109 20.7544 18.7109C20.5776 18.7109 20.408 18.7812 20.283 18.9062ZM4.72094 33.639C3.88021 34.4798 4.48394 35.9144 5.66375 35.9144C6.84339 35.9144 7.44762 34.48 6.60648 33.6389C6.08674 33.1194 5.24092 33.1192 4.72094 33.639Z" fill="#F9FAFF"/>
<path d="M39.8381 10.2817C39.7994 8.28105 37.3778 7.3079 35.9627 8.72295L32.7004 11.9854C32.3277 12.358 31.782 12.5033 31.2757 12.3646C31.2757 12.3646 28.179 11.5164 28.1642 11.5134C27.928 11.4656 27.7172 11.3501 27.5375 11.1704L24.3028 7.93564C24.1778 7.81062 24.0082 7.74038 23.8314 7.74038C23.6546 7.74038 23.485 7.81062 23.36 7.93564C23.235 8.06066 23.1647 8.23023 23.1647 8.40705C23.1647 8.58386 23.235 8.75343 23.36 8.87845L26.5947 12.1132C26.9521 12.4705 27.3946 12.7128 27.8757 12.8152L30.9234 13.6505C31.8903 13.9156 32.9326 13.6388 33.6432 12.9282L36.9056 9.66585C37.4916 9.07986 38.4891 9.48135 38.505 10.3076C38.5421 12.2276 38.3215 14.6947 36.2687 16.7474C33.3753 19.6407 30.3929 19.797 28.4002 19.4186C27.231 19.1966 26.0402 19.5571 25.2142 20.3829L8.0635 37.5336C6.53871 39.0585 4.06001 39.0447 2.55271 37.4865C1.09658 35.9811 1.14108 33.5272 2.65179 32.0165L19.7662 14.9021C20.5817 14.0866 20.937 12.9095 20.7165 11.7535C20.1538 8.80379 21.1967 6.14851 23.2394 4.01323C25.0829 2.08627 27.2674 1.23721 30.1152 1.34171C30.9433 1.37204 31.3346 2.35968 30.7531 2.94092L27.0339 6.66008C26.9089 6.78511 26.8386 6.95468 26.8386 7.13149C26.8386 7.3083 26.9089 7.47787 27.0339 7.6029C27.1589 7.72792 27.3285 7.79816 27.5053 7.79816C27.6821 7.79816 27.8517 7.72792 27.9767 7.6029L31.696 3.88365C33.1013 2.4781 32.1505 0.0819862 30.164 0.00923782C26.9522 -0.108593 24.3726 0.8998 22.276 3.0915C20.7505 4.68613 19.7798 6.51101 19.408 8.42638L18.9881 8.00647C18.8631 7.88145 18.6935 7.81121 18.5167 7.81121C18.3399 7.81121 18.1703 7.88145 18.0453 8.00647C17.9203 8.1315 17.85 8.30107 17.85 8.47788C17.85 8.65469 17.9203 8.82426 18.0453 8.94928L19.237 10.141C19.2325 10.7658 19.2893 11.3896 19.4067 12.0033C19.5444 12.7251 19.3263 13.4563 18.8233 13.9593L1.70898 31.0737C-0.313054 33.0957 -0.364469 36.3883 1.5944 38.4134C3.62477 40.5125 6.95895 40.5237 9.00632 38.4764L26.157 21.3256C26.6707 20.8119 27.4162 20.5888 28.1516 20.7283C31.4145 21.3479 34.6325 20.2689 37.2117 17.6899C39.647 15.2545 39.877 12.2955 39.8381 10.2817Z" fill="#F9FAFF"/>
<path d="M23.211 12.2505L22.3519 12.7466C22.1988 12.835 22.087 12.9806 22.0413 13.1514C21.9955 13.3221 22.0195 13.5041 22.1079 13.6572C22.2928 13.9776 22.7012 14.0845 23.0185 13.9012L23.8777 13.4051C24.0308 13.3167 24.1425 13.1711 24.1883 13.0004C24.234 12.8296 24.2101 12.6476 24.1217 12.4945C24.0779 12.4187 24.0196 12.3522 23.9502 12.2989C23.8807 12.2456 23.8014 12.2065 23.7169 12.1838C23.6323 12.1612 23.5441 12.1554 23.4573 12.1668C23.3705 12.1783 23.2868 12.2067 23.211 12.2505ZM25.2535 14.293L24.3944 14.7891C24.2413 14.8775 24.1296 15.0231 24.0838 15.1939C24.038 15.3647 24.062 15.5466 24.1504 15.6998C24.3353 16.0202 24.7437 16.127 25.061 15.9438L25.9202 15.4477C26.0733 15.3593 26.185 15.2137 26.2308 15.0429C26.2765 14.8721 26.2526 14.6902 26.1642 14.537C26.1204 14.4612 26.0622 14.3947 25.9927 14.3414C25.9233 14.2881 25.844 14.249 25.7594 14.2264C25.6749 14.2037 25.5866 14.1979 25.4998 14.2094C25.413 14.2208 25.3294 14.2492 25.2535 14.293ZM27.1443 18.027L28.0035 17.531C28.0799 17.4875 28.147 17.4294 28.2009 17.3599C28.2547 17.2904 28.2943 17.211 28.3173 17.1261C28.3404 17.0413 28.3464 16.9527 28.3351 16.8655C28.3237 16.7783 28.2953 16.6942 28.2513 16.6181C28.2074 16.542 28.1488 16.4753 28.0789 16.4219C28.0091 16.3685 27.9294 16.3294 27.8444 16.3069C27.7594 16.2845 27.6708 16.279 27.5837 16.2909C27.4966 16.3028 27.4127 16.3319 27.3368 16.3763L26.4777 16.8724C26.3246 16.9608 26.2129 17.1064 26.1671 17.2772C26.1213 17.448 26.1453 17.6299 26.2337 17.783C26.4187 18.1035 26.827 18.2103 27.1443 18.027Z" fill="#F9FAFF"/>
</g>
<defs>
<clipPath id="clip0_202_226">
<rect width="40" height="40" fill="white"/>
</clipPath>
</defs>
</svg>
