<svg width="40" height="40" id="money" viewBox="0 0 40 40" fill="none" xmlns="http://www.w3.org/2000/svg">
<path d="M33.5732 9.00848L34.6406 7.94104C34.9 7.68191 35.3221 7.68158 35.5814 7.94104L37.1103 9.46994C37.1909 9.55011 37.2496 9.64966 37.2806 9.75904C37.3116 9.86841 37.3139 9.98393 37.2874 10.0945C37.189 10.5115 37.5055 10.9126 37.9354 10.9126C38.0853 10.9124 38.2306 10.8617 38.348 10.7686C38.4654 10.6756 38.548 10.5456 38.5824 10.3998C38.7424 9.72108 38.5438 9.02179 38.0512 8.52906L36.5222 7.00017C35.7441 6.2222 34.478 6.22229 33.6997 7.00025L32.5014 8.1985C29.8498 6.34827 26.662 5.21663 23.2219 5.08674V4.158C23.2219 3.98156 23.1518 3.81234 23.027 3.68758C22.9022 3.56282 22.733 3.49272 22.5566 3.49272C22.3801 3.49272 22.2109 3.56282 22.0861 3.68758C21.9614 3.81234 21.8913 3.98156 21.8913 4.158V5.08649C21.7164 5.09297 21.5417 5.10201 21.3671 5.1136C20.8147 4.72665 20.4777 4.09023 20.4777 3.40956C20.4777 2.2632 21.4103 1.33056 22.5567 1.33056C23.54 1.33056 24.3967 2.02844 24.5933 2.98985C24.6104 3.07589 24.6443 3.1577 24.6931 3.23058C24.7419 3.30347 24.8046 3.36598 24.8776 3.41453C24.9507 3.46308 25.0326 3.49671 25.1187 3.51349C25.2048 3.53026 25.2933 3.52984 25.3793 3.51226C25.4652 3.49468 25.5468 3.46028 25.6194 3.41105C25.692 3.36181 25.7541 3.29871 25.8022 3.22537C25.8503 3.15204 25.8834 3.06991 25.8997 2.98372C25.9159 2.89753 25.915 2.80898 25.8969 2.72316C25.574 1.1452 24.1693 0 22.5567 0C19.839 0 18.2138 3.04108 19.7226 5.30245C18.3323 5.52924 16.975 5.92546 15.6811 6.48225C15.3434 6.62736 15.1874 7.01863 15.3326 7.35617C15.3671 7.43645 15.4171 7.50913 15.4797 7.57009C15.5423 7.63104 15.6163 7.67907 15.6975 7.71143C15.7786 7.74378 15.8654 7.75983 15.9527 7.75867C16.0401 7.7575 16.1264 7.73913 16.2066 7.70462C18.215 6.84116 20.3514 6.40333 22.5567 6.40333C31.4295 6.40333 38.6481 13.622 38.6481 22.4948C38.6481 32.9726 28.7237 40.7111 18.5202 38.076C18.3504 38.035 18.1713 38.0624 18.0216 38.1522C17.8718 38.2421 17.7634 38.3873 17.7197 38.5564C17.676 38.7255 17.7006 38.9051 17.7882 39.0562C17.8757 39.2074 18.0192 39.318 18.1876 39.3643C29.2011 42.2085 39.9787 33.8763 39.9787 22.4948C39.9787 17.0639 37.4804 12.206 33.5732 9.00848Z" fill="#F9FAFF"/>
<path d="M22.5569 36.1745C30.1229 36.1745 36.2783 30.0191 36.2783 22.4531C36.2783 14.8871 30.1229 8.7317 22.5569 8.7317C16.2772 8.7317 11.0198 12.9404 9.37344 18.6365C9.32444 18.806 9.34479 18.988 9.43 19.1425C9.51522 19.297 9.65832 19.4114 9.82783 19.4603C9.99733 19.5093 10.1794 19.489 10.3339 19.4038C10.4884 19.3186 10.6027 19.1755 10.6517 19.006C12.1118 13.9538 16.6773 10.3641 21.8916 10.0809V16.4361C21.8916 16.6125 21.9617 16.7817 22.0865 16.9065C22.2112 17.0313 22.3804 17.1013 22.5569 17.1013C22.7333 17.1013 22.9026 17.0313 23.0273 16.9065C23.1521 16.7817 23.2222 16.6125 23.2222 16.4361V10.0801C29.7464 10.4271 34.9477 15.8439 34.9477 22.453C34.9477 29.2854 29.3892 34.8439 22.5569 34.8439C19.1773 34.8439 17.0738 33.5144 16.7746 33.4319C16.4602 33.3431 16.1057 33.5052 15.9784 33.8333C14.8571 36.7254 12.0213 38.6693 8.91864 38.6693C4.74583 38.6693 1.35107 35.2746 1.35107 31.1018C1.35107 26.929 4.74583 23.5342 8.91864 23.5342C12.8173 23.5342 16.0539 26.4545 16.4471 30.3273C16.4558 30.4143 16.4816 30.4986 16.523 30.5756C16.5644 30.6526 16.6206 30.7206 16.6883 30.7759C16.7561 30.8311 16.834 30.8724 16.9178 30.8975C17.0015 30.9225 17.0893 30.9308 17.1763 30.9219C17.2632 30.9131 17.3475 30.8872 17.4244 30.8458C17.5014 30.8044 17.5694 30.7482 17.6246 30.6805C17.6798 30.6128 17.7212 30.5348 17.7463 30.4512C17.7713 30.3675 17.7797 30.2797 17.7709 30.1927C17.2138 24.7071 11.8037 21.0152 6.46616 22.5474C6.44828 17.3922 8.81793 12.6722 12.9341 9.59615C13.1821 9.41087 13.2661 9.08106 13.1469 8.80172C13.0746 8.63341 13.1291 8.71532 11.4137 6.99998C10.6356 6.22193 9.36945 6.2221 8.59115 6.99998L7.06225 8.52887C6.57311 9.0181 6.37361 9.71299 6.52837 10.3879C6.56206 10.5346 6.64445 10.6655 6.76212 10.7594C6.87978 10.8532 7.02577 10.9044 7.17627 10.9046C7.60413 10.9046 7.9208 10.5069 7.82533 10.0904C7.7996 9.98034 7.80244 9.86556 7.83357 9.75693C7.86471 9.6483 7.9231 9.54944 8.00321 9.46975L9.53203 7.94085C9.79157 7.68172 10.2135 7.68147 10.4729 7.94077L11.5357 9.00355C7.45585 12.3446 4.96936 17.4275 5.144 23.0452C2.11955 24.4679 0.0205078 27.5441 0.0205078 31.1018C0.0205078 36.0082 4.01219 39.9999 8.91864 39.9999C12.4664 39.9999 15.5059 37.9283 16.9328 34.9717C18.7011 35.7695 20.5894 36.1745 22.5569 36.1745Z" fill="#F9FAFF"/>
<path d="M27.6634 24.0104C27.6813 24.0959 27.7159 24.177 27.7652 24.2492C27.8145 24.3213 27.8775 24.383 27.9506 24.4308C28.0238 24.4786 28.1056 24.5115 28.1915 24.5277C28.2773 24.5439 28.3655 24.543 28.451 24.525C31.3078 23.9263 32.3699 23.3648 32.3699 22.4533C32.3699 21.6153 31.3987 21.1917 30.4487 20.8881C29.2279 20.4978 27.2603 20.1071 24.6028 19.7262C24.0126 19.2834 23.2948 19.0439 22.557 19.0435C20.677 19.0435 19.1474 20.573 19.1474 22.453C19.1474 24.333 20.677 25.8626 22.557 25.8626C23.9539 25.8626 25.2317 24.9877 25.7368 23.6855C25.8006 23.5209 25.7964 23.3378 25.7252 23.1764C25.654 23.0149 25.5216 22.8884 25.3571 22.8246C25.1926 22.7608 25.0094 22.7649 24.848 22.8361C24.6865 22.9074 24.56 23.0398 24.4962 23.2043C24.1882 23.9985 23.4089 24.532 22.557 24.532C21.4106 24.532 20.478 23.5994 20.478 22.453C20.478 20.7651 22.4392 19.6874 23.916 20.8782C23.9869 20.9352 24.0689 20.9769 24.1567 21.0006C24.4618 21.0825 29.2767 21.6737 30.8203 22.4508C30.4845 22.6188 29.7513 22.893 28.1782 23.2228C28.0927 23.2407 28.0115 23.2752 27.9394 23.3245C27.8672 23.3738 27.8055 23.4368 27.7577 23.5099C27.7099 23.5831 27.6769 23.6649 27.6608 23.7508C27.6446 23.8366 27.6455 23.9248 27.6634 24.0104ZM8.92139 37.2448C9.09783 37.2448 9.26705 37.1747 9.39181 37.0499C9.51658 36.9252 9.58667 36.7559 9.58667 36.5795V35.6789C11.0506 35.4265 12.1532 34.3587 12.1532 33.0834C12.1532 31.079 10.3625 30.7123 9.05478 30.4446C7.50317 30.1269 7.02001 29.9013 7.02001 29.1092C7.02001 28.3928 7.8907 27.7874 8.9213 27.7874C9.62376 27.7874 10.2692 28.0628 10.6058 28.5062C10.7125 28.6467 10.8706 28.7391 11.0454 28.763C11.2202 28.787 11.3974 28.7405 11.5379 28.6338C11.6785 28.5271 11.7709 28.369 11.7948 28.1942C11.8188 28.0194 11.7723 27.8422 11.6656 27.7017C11.1931 27.0792 10.4431 26.6578 9.58658 26.5131V25.6131C9.58658 25.4367 9.51649 25.2674 9.39173 25.1427C9.26696 25.0179 9.09775 24.9478 8.9213 24.9478C8.74486 24.9478 8.57564 25.0179 8.45088 25.1427C8.32611 25.2674 8.25602 25.4367 8.25602 25.6131V26.5136C6.79207 26.766 5.68945 27.8338 5.68945 29.1092C5.68945 31.1136 7.48022 31.4803 8.78791 31.748C10.3395 32.0657 10.8227 32.2914 10.8227 33.0834C10.8227 33.7998 9.95199 34.4051 8.92139 34.4051C8.21893 34.4051 7.57345 34.1297 7.2369 33.6865C7.18422 33.6165 7.11824 33.5576 7.04274 33.5132C6.96725 33.4687 6.88373 33.4397 6.79697 33.4276C6.71021 33.4155 6.62193 33.4207 6.53718 33.4429C6.45243 33.465 6.37289 33.5037 6.30312 33.5567C6.23336 33.6096 6.17473 33.6758 6.13062 33.7515C6.08651 33.8272 6.05777 33.9108 6.04606 33.9976C6.03435 34.0844 6.0399 34.1727 6.06239 34.2573C6.08488 34.342 6.12386 34.4214 6.1771 34.4909C6.6497 35.1134 7.39947 35.5347 8.25611 35.6794V36.5795C8.25611 36.7559 8.3262 36.9252 8.45096 37.0499C8.57573 37.1747 8.74494 37.2448 8.92139 37.2448Z" fill="#F9FAFF"/>
</svg>
