<svg width="64" height="60" viewBox="0 0 64 60" fill="none" xmlns="http://www.w3.org/2000/svg">
<path d="M30.8881 52.451H12.8458L3.42368 43.0284H9.43224C10.5348 43.0284 11.4319 43.9257 11.4319 45.0284V47.4153C11.4319 47.6805 11.5373 47.9349 11.7248 48.1224C11.9123 48.3099 12.1666 48.4153 12.4318 48.4153C12.6969 48.4153 12.9513 48.3099 13.1388 48.1224C13.3263 47.9349 13.4316 47.6805 13.4316 47.4153V45.0284C13.4316 42.8228 11.6375 41.0284 9.43224 41.0284H2.00965V14.5847H47.5469C47.8121 14.5847 48.0664 14.4794 48.2539 14.2918C48.4414 14.1043 48.5468 13.8499 48.5468 13.5847C48.5468 13.3195 48.4414 13.0652 48.2539 12.8776C48.0664 12.6901 47.8121 12.5847 47.5469 12.5847H2.00965V7.88473C2.00965 6.78199 2.90676 5.88474 4.00934 5.88474H10.4418C10.707 5.88474 10.9613 5.77938 11.1488 5.59185C11.3363 5.40431 11.4417 5.14996 11.4417 4.88474C11.4417 3.29399 12.7357 2 14.3264 2C15.917 2 17.211 3.29424 17.211 4.88512C17.211 7.05336 14.9028 8.43423 13.0016 7.44874C12.7667 7.33179 12.4952 7.31186 12.2458 7.39325C11.9964 7.47464 11.7889 7.65083 11.6681 7.88381C11.5474 8.11679 11.523 8.38791 11.6003 8.63868C11.6776 8.88946 11.8504 9.09981 12.0813 9.22436C15.3151 10.901 19.2107 8.54486 19.2107 4.88512C19.2107 2.19137 17.0197 0 14.3264 0C11.9757 0 10.0075 1.66925 9.54497 3.88474H4.00934C1.80406 3.88474 0.00995961 5.67911 0.00995961 7.88473C0.00995961 44.3709 -0.0506559 42.1609 0.127191 42.4982C0.236424 42.7033 -0.414849 42.0178 11.7248 54.1581C11.8825 54.3152 12.0881 54.4153 12.309 54.4425C12.4217 54.4556 11.2417 54.4509 30.8881 54.4509C31.1514 54.4479 31.4028 54.3413 31.5879 54.1541C31.773 53.9669 31.8768 53.7142 31.8768 53.451C31.8768 53.1877 31.773 52.935 31.5879 52.7478C31.4028 52.5606 31.1514 52.454 30.8881 52.451Z" fill="#131624"/>
<path d="M23.4684 5.88486H35.9043C36.5146 8.80823 39.6138 10.5236 42.4254 9.45085C42.5481 9.40406 42.6604 9.33356 42.7558 9.24338C42.8513 9.1532 42.928 9.0451 42.9817 8.92525C43.0353 8.80541 43.0649 8.67616 43.0686 8.5449C43.0723 8.41364 43.0501 8.28293 43.0034 8.16023C42.9566 8.03754 42.8861 7.92526 42.7959 7.82981C42.7057 7.73436 42.5977 7.65761 42.4778 7.60394C42.358 7.55026 42.2288 7.52072 42.0975 7.517C41.9663 7.51328 41.8356 7.53544 41.7129 7.58223C39.8325 8.29948 37.8008 6.90361 37.8009 4.88536C37.801 3.29499 39.0952 2.00012 40.6855 2.00012C42.2761 2.00012 43.5701 3.29437 43.5701 4.88524C43.5702 5.15043 43.6755 5.40476 43.863 5.59226C44.0505 5.77977 44.3048 5.88511 44.57 5.88511H51.0024C52.1049 5.88511 53.0021 6.78211 53.0021 7.88498V23.5768C53.0021 23.842 53.1074 24.0964 53.2949 24.2839C53.4824 24.4715 53.7367 24.5768 54.0019 24.5768C54.2671 24.5768 54.5214 24.4715 54.7089 24.2839C54.8964 24.0964 55.0017 23.842 55.0017 23.5768V7.88486C55.0017 5.67924 53.2076 3.88499 51.0024 3.88499H45.4668C45.0042 1.66925 43.0361 0 40.6855 0C38.335 0 36.3674 1.66925 35.9045 3.88474H23.4683C23.337 3.88475 23.2069 3.91063 23.0856 3.96089C22.9643 4.01116 22.8541 4.08483 22.7613 4.1777C22.6684 4.27057 22.5948 4.38082 22.5445 4.50215C22.4943 4.62349 22.4684 4.75354 22.4684 4.88487C22.4684 5.01619 22.4943 5.14624 22.5446 5.26757C22.5948 5.3889 22.6685 5.49914 22.7613 5.592C22.8542 5.68485 22.9644 5.75851 23.0858 5.80876C23.2071 5.85901 23.3371 5.88487 23.4684 5.88486ZM26.7179 17.8146C24.3748 17.8146 22.4686 19.7211 22.4686 22.0645C22.4686 24.4079 24.3748 26.3146 26.7179 26.3146C29.061 26.3146 30.9672 24.4081 30.9672 22.0646C30.9672 19.7211 29.061 17.8146 26.7179 17.8146ZM26.7179 24.3146C25.4775 24.3146 24.4682 23.3052 24.4682 22.0645C24.4682 20.8238 25.4775 19.8146 26.7179 19.8146C27.9583 19.8146 28.9675 20.824 28.9675 22.0646C28.9675 23.3052 27.9583 24.3146 26.7179 24.3146ZM26.7179 40.3145C24.3748 40.3145 22.4686 42.221 22.4686 44.5645C22.4686 46.908 24.3748 48.8145 26.7179 48.8145C29.061 48.8145 30.9672 46.908 30.9672 44.5645C30.9672 42.221 29.061 40.3145 26.7179 40.3145ZM26.7179 46.8145C25.4775 46.8145 24.4682 45.8052 24.4682 44.5645C24.4682 43.3239 25.4775 42.3145 26.7179 42.3145C27.9583 42.3145 28.9675 43.3239 28.9675 44.5645C28.9675 45.8052 27.9583 46.8145 26.7179 46.8145ZM36.2164 22.0646C36.2164 24.4081 38.1226 26.3146 40.4658 26.3146C42.8089 26.3146 44.7151 24.4079 44.7151 22.0645C44.7151 19.7211 42.8089 17.8146 40.4658 17.8146C38.1226 17.8146 36.2164 19.7211 36.2164 22.0646ZM42.7154 22.0645C42.7154 23.3052 41.7062 24.3146 40.4658 24.3146C39.2253 24.3146 38.2161 23.3052 38.2161 22.0646C38.2161 20.824 39.2253 19.8146 40.4658 19.8146C41.7062 19.8146 42.7154 20.8238 42.7154 22.0645ZM12.97 17.8146C10.6269 17.8146 8.7207 19.7211 8.7207 22.0645C8.7207 24.4079 10.6269 26.3146 12.97 26.3146C15.3132 26.3146 17.2194 24.4081 17.2194 22.0646C17.2194 19.7211 15.3132 17.8146 12.97 17.8146ZM12.97 24.3146C11.7296 24.3146 10.7204 23.3052 10.7204 22.0645C10.7204 20.8238 11.7296 19.8146 12.97 19.8146C14.2105 19.8146 15.2197 20.824 15.2197 22.0646C15.2197 23.3052 14.2106 24.3146 12.97 24.3146ZM26.7179 29.0646C24.3748 29.0646 22.4686 30.9711 22.4686 33.3144C22.4686 35.9948 24.9324 38.0177 27.5729 37.4783C27.8327 37.4252 28.0608 37.2711 28.207 37.0499C28.3532 36.8287 28.4055 36.5584 28.3525 36.2986C28.3263 36.1699 28.2749 36.0476 28.2014 35.9388C28.1279 35.83 28.0337 35.7367 27.9242 35.6643C27.8146 35.5919 27.6919 35.5418 27.563 35.5169C27.434 35.4919 27.3015 35.4926 27.1728 35.5189C25.7665 35.8061 24.4682 34.7274 24.4682 33.3146C24.4682 31.2899 26.947 30.3024 28.3423 31.7579C28.5258 31.9494 28.7778 32.0601 29.043 32.0657C29.3081 32.0713 29.5646 31.9713 29.756 31.7877C29.9474 31.6042 30.0581 31.3521 30.0637 31.087C30.0693 30.8218 29.9693 30.5653 29.7858 30.3738C28.9765 29.5296 27.887 29.0646 26.7179 29.0646ZM12.97 29.0646C10.6269 29.0646 8.7207 30.9711 8.7207 33.3144C8.7207 35.6579 10.6269 37.5645 12.97 37.5645C15.3132 37.5645 17.2194 35.6581 17.2194 33.3146C17.2194 30.9711 15.3132 29.0646 12.97 29.0646ZM12.97 35.5646C11.7296 35.5646 10.7204 34.5552 10.7204 33.3144C10.7204 32.0738 11.7296 31.0646 12.97 31.0646C14.2105 31.0646 15.2197 32.0739 15.2197 33.3146C15.2197 34.5552 14.2105 35.5646 12.97 35.5646ZM59.4392 33.5723C58.0359 31.6126 56.1979 29.9309 54.124 28.7093C52.5479 27.7806 50.5221 28.4654 49.8289 30.1467L49.3257 31.3671C43.7086 29.5402 37.5687 31.7729 34.3956 36.8194L33.216 36.2044C32.6777 35.9238 32.513 35.2331 32.8682 34.7369C34.1104 33.0022 35.7371 31.5137 37.5726 30.4324C37.8267 30.2827 38.1204 30.2514 38.3993 30.3448C38.6509 30.4288 38.9255 30.4094 39.1627 30.2909C39.4 30.1724 39.5805 29.9645 39.6644 29.7129C39.7484 29.4613 39.729 29.1866 39.6105 28.9493C39.492 28.712 39.2842 28.5316 39.0326 28.4476C38.6254 28.3116 38.1937 28.2646 37.7668 28.3098C37.3398 28.3549 36.9276 28.4911 36.5577 28.7092C34.4838 29.9308 32.6458 31.6126 31.2424 33.5723C30.1817 35.0539 30.6743 37.1345 32.2917 37.9778L33.4655 38.5898C31.5579 43.0368 32.2575 48.4359 35.7515 52.3011L34.5403 56.0918C33.9221 58.0269 35.3629 60 37.394 60H53.2876C55.3188 60 56.7595 58.0269 56.1413 56.0918L54.9302 52.301C58.5789 48.2622 59.2347 42.4838 56.8377 37.7842C56.8115 37.716 56.7776 37.651 56.7367 37.5905C56.041 36.2801 55.1247 35.0994 54.028 34.1003C53.8316 33.9234 53.5732 33.8315 53.3092 33.8446C53.0453 33.8577 52.7972 33.9748 52.6194 34.1703C52.4415 34.3659 52.3483 34.6239 52.36 34.8879C52.3718 35.152 52.4877 35.4007 52.6822 35.5796C57.2474 39.7344 57.4909 46.8994 53.0884 51.3386C52.9596 51.4685 52.8689 51.6311 52.8261 51.809C52.7833 51.9868 52.7901 52.1729 52.8458 52.3471L54.2366 56.7004C54.4422 57.3439 53.9632 57.9999 53.2878 57.9999H37.3939C36.7185 57.9999 36.2394 57.3439 36.445 56.7004L37.8359 52.3471C37.8916 52.1729 37.8984 51.9868 37.8557 51.8089C37.8129 51.6311 37.7222 51.4684 37.5935 51.3385C35.49 49.2174 34.3672 46.4023 34.4318 43.4115C34.5922 35.9877 42.2816 30.5914 49.4992 33.5687C50.0096 33.7797 50.5942 33.5361 50.8048 33.0254L51.6775 30.9089C51.9093 30.3468 52.5831 30.1223 53.109 30.4323C54.9446 31.5134 56.5712 33.0019 57.8134 34.7367C57.9348 34.906 58.0004 35.109 58.001 35.3174C58.0017 35.5258 57.9374 35.7292 57.8171 35.8993C57.3438 36.5672 57.8329 37.4777 58.6319 37.4777C58.7919 37.4779 58.9495 37.4397 59.0916 37.3662C59.2337 37.2928 59.3561 37.1864 59.4485 37.0558C60.1879 36.0127 60.1841 34.6127 59.4392 33.5723Z" fill="#131624"/>
<path d="M45.3402 35.667C40.9369 35.667 37.3545 39.2499 37.3545 43.654C37.3545 48.0581 40.9369 51.641 45.3402 51.641C49.7436 51.641 53.326 48.058 53.326 43.654C53.326 39.25 49.7437 35.667 45.3402 35.667ZM45.3402 49.641C42.0395 49.641 39.3542 46.9552 39.3542 43.654C39.3542 40.3529 42.0395 37.667 45.3402 37.667C48.641 37.667 51.3263 40.3527 51.3263 43.654C51.3263 46.9551 48.641 49.641 45.3402 49.641Z" fill="#131624"/>
<path d="M46.34 43.6432V40.0155C46.34 39.7503 46.2346 39.496 46.0471 39.3085C45.8596 39.121 45.6053 39.0156 45.3401 39.0156C45.0749 39.0156 44.8206 39.121 44.6331 39.3085C44.4456 39.496 44.3403 39.7503 44.3403 40.0155V43.1271L42.6893 44.2618C42.4725 44.4127 42.3243 44.6433 42.2769 44.9031C42.2296 45.163 42.287 45.431 42.4366 45.6486C42.5862 45.8663 42.8158 46.0159 43.0754 46.0649C43.3349 46.1138 43.6033 46.0581 43.8218 45.9098C45.6733 44.6374 45.8638 44.5073 45.927 44.4614C46.1885 44.2711 46.34 43.972 46.34 43.6432Z" fill="#131624"/>
</svg>
