<svg width="64" height="60" viewBox="0 0 64 60" fill="none" xmlns="http://www.w3.org/2000/svg">
<g clip-path="url(#clip0_118_485)">
<path d="M59.8147 41.899L58.1769 37.4615C57.744 36.2883 56.6128 35.5 55.3619 35.5H54.7502V30.375C54.7502 27.618 52.5072 25.375 49.7502 25.375H7.1574C6.89218 25.375 6.63783 25.4804 6.45029 25.6679C6.26276 25.8554 6.1574 26.1098 6.1574 26.375C6.1574 26.6402 6.26276 26.8946 6.45029 27.0821C6.63783 27.2696 6.89218 27.375 7.1574 27.375H49.7502C51.4043 27.375 52.7502 28.7208 52.7502 30.375V35.5H44.6898C40.5877 35.5 37.2502 38.8364 37.2502 42.9375C37.2502 47.0386 40.5875 50.375 44.6898 50.375H52.7502V54.625C52.7502 56.2793 51.4044 57.625 49.7502 57.625H5.00015C3.3459 57.625 2.00015 56.2793 2.00015 54.625V18.4373C3.0644 19.3551 4.4394 19.875 5.84402 19.875H49.7503C51.4045 19.875 52.7503 21.2208 52.7503 22.875V23.6774C52.7503 23.9426 52.8556 24.1969 53.0432 24.3845C53.2307 24.572 53.4851 24.6774 53.7503 24.6774C54.0155 24.6774 54.2698 24.572 54.4574 24.3845C54.6449 24.1969 54.7503 23.9426 54.7503 23.6774V22.875C54.7503 20.5049 53.0922 18.5161 50.8753 18.0043V13.375C50.8753 12.5193 50.656 11.6779 50.2382 10.9311C50.1084 10.6998 49.892 10.5296 49.6367 10.4578C49.3814 10.386 49.1081 10.4186 48.8768 10.5484C48.7623 10.6126 48.6615 10.6988 48.5803 10.802C48.4991 10.9052 48.439 11.0234 48.4034 11.1498C48.3679 11.2762 48.3576 11.4084 48.3731 11.5388C48.3887 11.6692 48.4298 11.7952 48.494 11.9098C48.7443 12.3575 48.8756 12.862 48.8753 13.375V17.875H45.1199L47.1779 13.3229C47.8058 11.934 47.1867 10.2931 45.7977 9.66513L37.6942 6.00163C37.5743 5.94649 37.4448 5.9156 37.313 5.91074C37.1812 5.90587 37.0498 5.92712 36.9262 5.97327C36.8027 6.01941 36.6895 6.08954 36.5931 6.17962C36.4968 6.26969 36.4192 6.37793 36.3649 6.49811C36.3106 6.61828 36.2806 6.74802 36.2766 6.87984C36.2726 7.01167 36.2947 7.14298 36.3417 7.26622C36.3887 7.38945 36.4595 7.50218 36.5503 7.59791C36.641 7.69364 36.7497 7.77048 36.8703 7.824L44.9738 11.4875C45.1584 11.5712 45.3022 11.7247 45.3737 11.9143C45.4453 12.104 45.4387 12.3142 45.3554 12.499L42.925 17.875H23.3752V6.45163C23.3752 6.18641 23.2698 5.93206 23.0823 5.74452C22.8947 5.55698 22.6404 5.45163 22.3752 5.45163C22.1099 5.45163 21.8556 5.55698 21.668 5.74452C21.4805 5.93206 21.3752 6.18641 21.3752 6.45163V17.875H8.50015V3.13938C8.50038 2.93672 8.58099 2.74243 8.72429 2.59914C8.86758 2.45584 9.06187 2.37523 9.26452 2.375H13.6251V14C13.6251 14.2652 13.7305 14.5196 13.918 14.7071C14.1056 14.8946 14.3599 15 14.6251 15C14.8904 15 15.1447 14.8946 15.3323 14.7071C15.5198 14.5196 15.6251 14.2652 15.6251 14V2.375H31.1108C31.3134 2.37523 31.5077 2.45584 31.651 2.59914C31.7943 2.74243 31.8749 2.93672 31.8752 3.13938V14.0645C31.8752 14.3297 31.9805 14.5841 32.168 14.7716C32.3556 14.9591 32.6099 15.0645 32.8752 15.0645C33.1404 15.0645 33.3947 14.9591 33.5823 14.7716C33.7698 14.5841 33.8752 14.3297 33.8752 14.0645V3.13938C33.8752 1.61513 32.635 0.375 31.1108 0.375H9.26452C7.74027 0.375 6.50015 1.61513 6.50015 3.13938V17.875H5.8439C4.81165 17.875 3.80165 17.449 3.0729 16.7061C1.38827 14.989 1.77052 12.2931 3.64777 11.0191C3.75643 10.9454 3.84951 10.851 3.92167 10.7412C3.99384 10.6315 4.04369 10.5087 4.06838 10.3797C4.09307 10.2507 4.09211 10.1181 4.06556 9.98952C4.03902 9.86091 3.98739 9.73879 3.91365 9.63013C3.8399 9.52147 3.74548 9.42839 3.63576 9.35623C3.52605 9.28406 3.40319 9.23421 3.27421 9.20952C3.14523 9.18483 3.01265 9.18579 2.88404 9.21234C2.75543 9.23888 2.63331 9.29051 2.52465 9.36425C0.979274 10.4131 0.0115234 12.1708 0.00177336 14.0939C-0.000726644 14.1726 0.000148356 54.2006 0.000148356 54.625C0.000148356 57.382 2.24315 59.625 5.00015 59.625H49.7502C52.5072 59.625 54.7502 57.382 54.7502 54.625V49.375C54.7502 49.1098 54.6448 48.8554 54.4573 48.6679C54.2697 48.4804 54.0154 48.375 53.7502 48.375H44.6898C41.6904 48.375 39.2502 45.9358 39.2502 42.9375C39.2502 39.9393 41.6903 37.5 44.6898 37.5H55.3619C55.5663 37.5005 55.7657 37.5634 55.9335 37.6803C56.1012 37.7972 56.2293 37.9624 56.3007 38.154L57.9384 42.5915C58.0208 42.8149 58.0208 43.0603 57.9384 43.2836L56.7673 46.4568C56.7209 46.5801 56.6994 46.7115 56.704 46.8432C56.7086 46.9749 56.7392 47.1044 56.794 47.2243C56.8489 47.3441 56.9268 47.452 57.0235 47.5416C57.1201 47.6312 57.2335 47.7009 57.3572 47.7465C57.4808 47.7921 57.6123 47.8129 57.744 47.8075C57.8757 47.8022 58.005 47.7709 58.1245 47.7154C58.2441 47.6599 58.3515 47.5813 58.4405 47.4841C58.5296 47.387 58.5986 47.2732 58.6435 47.1493L59.8147 43.9761C60.0618 43.3058 60.0618 42.5693 59.8147 41.899Z" fill="#131624"/>
<path d="M45.125 44.875C46.2296 44.875 47.125 43.9796 47.125 42.875C47.125 41.7704 46.2296 40.875 45.125 40.875C44.0204 40.875 43.125 41.7704 43.125 42.875C43.125 43.9796 44.0204 44.875 45.125 44.875Z" fill="#131624"/>
</g>
<defs>
<clipPath id="clip0_118_485">
<rect width="60" height="60" fill="white"/>
</clipPath>
</defs>
</svg>
