<svg width="64" height="60" viewBox="0 0 64 60" fill="none" xmlns="http://www.w3.org/2000/svg">
<g clip-path="url(#clip0_206_861)">
<path d="M47.8297 44.5508C47.6919 44.3249 47.4703 44.1628 47.2133 44.0999C46.9563 44.037 46.6848 44.0785 46.4584 44.2153C46.2319 44.3522 46.0689 44.5731 46.0049 44.8299C45.941 45.0866 45.9814 45.3582 46.1172 45.5853L49.7317 51.5697C50.3167 52.538 49.6246 53.79 48.4639 53.7787L44.9048 53.7267C43.879 53.7147 42.9051 54.1492 42.2351 54.9271L40.0274 57.4901C39.2775 58.3609 37.8642 58.0622 37.5306 56.9626L34.2251 46.0697C34.3799 45.9265 33.9433 46.3473 36.5008 43.873L39.4898 44.2958C42.8343 44.7686 45.9133 42.5326 46.4972 39.2047L47.0188 36.2314L49.6853 34.8165C52.6701 33.2329 53.8458 29.6145 52.3619 26.5789L51.0362 23.8669L52.362 21.1549C53.8458 18.1194 52.6701 14.501 49.6853 12.9173L47.0188 11.5026L46.4972 8.52932C45.9134 5.20117 42.8361 2.96478 39.4898 3.43819L36.5009 3.86096L34.3313 1.76198C31.9028 -0.587328 28.0981 -0.587328 25.6697 1.76198L23.5 3.86096L20.5111 3.43819C17.1652 2.9649 14.0875 5.2013 13.5037 8.52932L12.9821 11.5026L10.3156 12.9173C7.33081 14.501 6.15515 18.1194 7.63904 21.1551L8.96463 23.8669L7.63879 26.5789C6.1549 29.6145 7.33069 33.2329 10.3155 34.8165L13.414 36.4606C13.6481 36.582 13.9206 36.606 14.1723 36.5275C14.424 36.449 14.6345 36.2743 14.7581 36.0414C14.8817 35.8085 14.9083 35.5362 14.8322 35.2838C14.7561 35.0313 14.5835 34.8192 14.3517 34.6934L11.2532 33.0493C9.22709 31.9743 8.42907 29.5182 9.43629 27.4576L10.9768 24.3063C11.0437 24.1695 11.0785 24.0192 11.0785 23.8669C11.0785 23.7147 11.0437 23.5644 10.9768 23.4276L9.43641 20.2764C8.42919 18.2158 9.22722 15.7596 11.2533 14.6847L14.3519 13.0408C14.4864 12.9694 14.6028 12.8683 14.6923 12.7451C14.7818 12.6219 14.842 12.4799 14.8683 12.3299L15.4744 8.87494C15.8706 6.61591 17.96 5.09739 20.2309 5.41912L23.704 5.91042C23.8547 5.93166 24.0084 5.91825 24.1532 5.87121C24.298 5.82417 24.4301 5.74474 24.5396 5.63895L27.0608 3.20011C28.7092 1.60531 31.2917 1.60531 32.9402 3.20011L35.4613 5.63895C35.5707 5.7448 35.7029 5.82427 35.8477 5.87132C35.9925 5.91836 36.1462 5.93174 36.297 5.91042L39.77 5.41912C42.0403 5.09751 44.1303 6.61591 44.5266 8.87494L45.1326 12.3299C45.159 12.4799 45.2192 12.6218 45.3087 12.745C45.3982 12.8682 45.5146 12.9693 45.6491 13.0408L48.7476 14.6847C50.7737 15.7597 51.5717 18.2159 50.5645 20.2764L49.024 23.4277C48.9571 23.5645 48.9223 23.7148 48.9223 23.8671C48.9223 24.0193 48.9571 24.1696 49.024 24.3064L50.5645 27.4577C51.5717 29.5183 50.7736 31.9744 48.7476 33.0494L45.6491 34.6935C45.5146 34.7649 45.3981 34.866 45.3086 34.9892C45.2191 35.1124 45.1589 35.2544 45.1326 35.4044L44.5266 38.8593C44.1303 41.1183 42.0399 42.6366 39.77 42.3151L36.297 41.824C36.1462 41.8026 35.9925 41.8159 35.8477 41.863C35.7029 41.91 35.5707 41.9895 35.4613 42.0954L32.9402 44.5343C31.2917 46.1291 28.7092 46.1291 27.0608 44.5343L24.5396 42.0954C24.4302 41.9895 24.298 41.91 24.1532 41.863C24.0084 41.8159 23.8547 41.8026 23.704 41.824L20.2309 42.3151C18.6637 42.5372 17.1181 41.8742 16.1968 40.586C15.8385 40.0846 15.101 40.0203 14.6642 40.4731C14.5402 40.6009 14.9482 39.9524 8.55649 50.5356C7.14475 52.8732 8.86959 55.8262 11.566 55.7793L15.1251 55.7273C15.5593 55.7244 15.9674 55.9053 16.2498 56.2329L18.4575 58.796C20.238 60.8629 23.5924 60.1543 24.3847 57.5437L26.43 50.8037C26.5071 50.5498 26.4801 50.2757 26.3551 50.0417C26.2301 49.8077 26.0172 49.6329 25.7633 49.5559C25.5094 49.4788 25.2353 49.5058 25.0013 49.6308C24.7673 49.7559 24.5926 49.9687 24.5155 50.2226L22.4702 56.9626C22.1364 58.0623 20.7233 58.3608 19.9734 57.4901L17.7657 54.9271C17.0957 54.1492 16.1256 53.7138 15.096 53.7267L11.5369 53.7787C10.3869 53.7916 9.67937 52.5462 10.2691 51.5698L15.5488 42.8283C16.8937 44.0015 18.6925 44.5529 20.5111 44.2961L23.5 43.8733L25.6697 45.9723C27.5215 47.7636 30.203 48.2107 32.4815 47.214L35.6162 57.5438C36.4085 60.1543 39.7629 60.8629 41.5434 58.7961L43.7512 56.2331C44.0334 55.9053 44.4411 55.723 44.8758 55.7274L48.4349 55.7794C51.1392 55.8274 52.8526 52.8672 51.4444 50.5356L47.8297 44.5508Z" fill="#131624"/>
<path d="M24.9575 31.737C25.1807 31.8805 25.4517 31.9294 25.7109 31.8731C25.9702 31.8167 26.1965 31.6597 26.34 31.4365L35.3431 17.4317C35.4824 17.2086 35.5282 16.9396 35.4706 16.6829C35.4131 16.4262 35.2567 16.2025 35.0355 16.0603C34.8142 15.918 34.5458 15.8686 34.2884 15.9228C34.031 15.977 33.8053 16.1303 33.6601 16.3497L24.657 30.3545C24.5135 30.5777 24.4646 30.8487 24.5209 31.108C24.5773 31.3673 24.7343 31.5935 24.9575 31.737ZM35.0017 31.5207C36.8633 31.5207 38.3779 30.0062 38.3779 28.1445C38.3779 26.2829 36.8633 24.7684 35.0017 24.7684C33.1401 24.7684 31.6255 26.2829 31.6255 28.1445C31.6255 30.0062 33.1402 31.5207 35.0017 31.5207ZM35.0017 26.769C35.7601 26.769 36.3772 27.3861 36.3772 28.1445C36.3772 28.9029 35.7601 29.52 35.0017 29.52C34.2433 29.52 33.6262 28.9029 33.6262 28.1445C33.6262 27.3861 34.2433 26.769 35.0017 26.769ZM28.3744 19.6416C28.3744 17.7799 26.8599 16.2654 24.9982 16.2654C23.1366 16.2654 21.6221 17.7799 21.6221 19.6416C21.6221 21.5032 23.1366 23.0178 24.9982 23.0178C26.8599 23.0178 28.3744 21.5032 28.3744 19.6416ZM23.6228 19.6416C23.6228 18.8832 24.2399 18.2661 24.9982 18.2661C25.7566 18.2661 26.3737 18.8832 26.3737 19.6416C26.3737 20.4 25.7566 21.0171 24.9982 21.0171C24.2399 21.0171 23.6228 20.4001 23.6228 19.6416Z" fill="#131624"/>
<path d="M42.6137 32.3126C42.8435 32.4451 43.1165 32.481 43.3727 32.4123C43.629 32.3436 43.8474 32.176 43.9802 31.9463C45.3874 29.5082 46.1313 26.7235 46.1313 23.8933C46.1313 14.9988 38.8951 7.7627 30.0007 7.7627C21.1062 7.7627 13.8701 14.9988 13.8701 23.8933C13.8701 32.7877 21.1062 40.0238 30.0007 40.0238C33.2331 40.0238 36.3519 39.071 39.0202 37.2684C39.2372 37.1187 39.3863 36.8894 39.4352 36.6303C39.484 36.3713 39.4286 36.1034 39.281 35.8849C39.1334 35.6665 38.9056 35.5152 38.647 35.4638C38.3884 35.4124 38.12 35.4652 37.9002 35.6107C35.5639 37.189 32.8323 38.0233 30.0007 38.0233C22.2094 38.0233 15.8708 31.6847 15.8708 23.8934C15.8708 16.1021 22.2094 9.76351 30.0007 9.76351C37.792 9.76351 44.1306 16.1021 44.1306 23.8934C44.1306 26.3731 43.4794 28.812 42.2474 30.9462C42.1148 31.176 42.0789 31.449 42.1476 31.7052C42.2163 31.9615 42.3839 32.1799 42.6137 32.3126Z" fill="#131624"/>
</g>
<defs>
<clipPath id="clip0_206_861">
<rect width="60" height="60" fill="white"/>
</clipPath>
</defs>
</svg>
