<svg width="64" height="60" viewBox="0 0 64 60" fill="none" xmlns="http://www.w3.org/2000/svg">
<g clip-path="url(#clip0_206_828)">
<path d="M47.2535 49.0068V59.0002C47.2535 59.2654 47.1482 59.5197 46.9607 59.7072C46.7732 59.8947 46.5189 60 46.2537 60H4.01448C3.74933 60 3.49504 59.8947 3.30755 59.7072C3.12006 59.5197 3.01473 59.2654 3.01473 59.0002C3.01473 8.3005 2.95849 11.4993 3.1292 11.1736C3.2498 10.9432 13.9713 0.257044 14.083 0.182688C14.4693 -0.0747464 12.5411 0.0152307 46.2537 0.0152307C46.5189 0.0152307 46.7732 0.120561 46.9607 0.30805C47.1482 0.495538 47.2535 0.749828 47.2535 1.01498V10.5892C47.2535 10.8543 47.1482 11.1086 46.9607 11.2961C46.7732 11.4836 46.5189 11.5889 46.2537 11.5889C45.9886 11.5889 45.7343 11.4836 45.5468 11.2961C45.3593 11.1086 45.254 10.8543 45.254 10.5892V2.01472H15.0509L6.42811 10.6375H13.6372V7.57581C13.6372 7.31066 13.7425 7.05637 13.93 6.86888C14.1175 6.68139 14.3718 6.57606 14.6369 6.57606C14.9021 6.57606 15.1563 6.68139 15.3438 6.86888C15.5313 7.05637 15.6366 7.31066 15.6366 7.57581V11.6373C15.6366 11.9024 15.5313 12.1567 15.3438 12.3442C15.1563 12.5317 14.9021 12.637 14.6369 12.637H5.01435V58.0005H45.2541V49.0068C45.2571 48.7436 45.3637 48.4922 45.5508 48.3071C45.738 48.122 45.9906 48.0182 46.2538 48.0182C46.517 48.0182 46.7696 48.122 46.9568 48.3071C47.1439 48.4922 47.2505 48.7436 47.2535 49.0068ZM56.1256 23.0901C55.8354 22.73 55.6715 22.2847 55.6948 21.765C55.7777 19.92 54.5598 18.2315 52.7771 17.7488C52.3135 17.6236 51.9123 17.3321 51.6499 16.9299C50.64 15.3834 48.6544 14.7384 46.9287 15.3958C46.48 15.567 45.9841 15.567 45.5354 15.3958C43.8833 14.7667 41.8973 15.304 40.8031 16.9453C40.65 17.174 40.3014 17.5826 39.6869 17.7488C37.9041 18.2315 36.677 19.9204 36.769 21.765C36.8014 22.4129 36.5427 22.7804 36.3024 23.1356C35.1801 24.5721 35.1921 26.6312 36.3385 28.0544C36.7989 28.6257 36.7798 29.2287 36.7713 29.3438C36.759 29.4768 36.7735 29.6109 36.8139 29.7382C36.8543 29.8655 36.9198 29.9835 37.0065 30.0851C37.0932 30.1867 37.1994 30.2699 37.3188 30.3297C37.4382 30.3896 37.5684 30.425 37.7017 30.4337C37.8349 30.4425 37.9686 30.4244 38.0948 30.3807C38.221 30.3369 38.3372 30.2683 38.4364 30.1789C38.5357 30.0895 38.616 29.9812 38.6727 29.8602C38.7294 29.7393 38.7613 29.6082 38.7665 29.4747C38.7911 29.108 38.7901 27.9101 37.8956 26.7999C37.3225 26.0885 37.3225 25.0559 37.8956 24.3444C38.4592 23.6455 38.8173 22.6918 38.7661 21.6654C38.7207 20.753 39.3276 19.9175 40.2094 19.6789C41.1265 19.4307 41.9115 18.8501 42.4626 18.0608C43.0735 17.1857 44.0219 16.9588 44.8236 17.2642C45.7307 17.6103 46.7335 17.6103 47.6406 17.2642C48.4942 16.9388 49.4763 17.2582 49.9759 18.023C50.5064 18.8362 51.3176 19.4256 52.2548 19.6789C53.1354 19.9172 53.742 20.7506 53.6983 21.6615C53.6732 22.0183 53.6674 23.2258 54.5686 24.3444C55.1417 25.0559 55.1417 26.0885 54.5686 26.7998C53.9409 27.5791 53.6527 28.5446 53.6981 29.4789C53.7436 30.3913 53.1366 31.2267 52.2548 31.4654C51.3176 31.7186 50.5063 32.308 49.9758 33.1212C49.4763 33.8861 48.4939 34.205 47.6405 33.8799C46.7334 33.534 45.7306 33.534 44.8235 33.8799C43.9701 34.2052 42.9878 33.8861 42.4883 33.1212C42.163 32.6231 41.719 32.2042 41.3165 31.959C40.7448 31.6087 39.9877 31.9136 39.8262 32.5746C39.7835 32.75 39.7968 32.0773 39.7968 42.7745C39.7968 44.9781 42.0917 46.4263 44.0795 45.4852L46.232 44.4659L48.3846 45.4852C50.3801 46.4302 52.6674 44.9692 52.6674 42.7745V38.794C52.6674 38.5289 52.562 38.2746 52.3745 38.0871C52.1871 37.8996 51.9328 37.7943 51.6676 37.7943C51.4025 37.7943 51.1482 37.8996 50.9607 38.0871C50.7732 38.2746 50.6679 38.5289 50.6679 38.794V42.7745C50.6679 43.5097 49.9056 43.9929 49.2404 43.678L46.66 42.4562C46.5262 42.3929 46.3801 42.36 46.2321 42.36C46.0841 42.36 45.938 42.3929 45.8042 42.4562L43.224 43.678C42.5596 43.9924 41.7964 43.5105 41.7964 42.7745V35.243C42.8554 36.01 44.2655 36.2323 45.5354 35.7484C46.6291 35.3319 46.9553 36.0042 48.322 36.0042C49.6315 36.0042 50.9058 35.354 51.6499 34.2144C51.9123 33.8122 52.3135 33.5207 52.7771 33.3954C54.4853 32.9331 55.7747 31.3289 55.695 29.3603C55.6843 29.0852 55.7262 28.55 56.1256 28.054C57.2842 26.6161 57.2842 24.5284 56.1256 23.0901ZM13.1372 23.0094H26.6337C26.8989 23.0094 27.1532 22.9041 27.3407 22.7166C27.5281 22.5291 27.6335 22.2748 27.6335 22.0096C27.6335 21.7445 27.5281 21.4902 27.3407 21.3027C27.1532 21.1152 26.8989 21.0099 26.6337 21.0099H13.1372C12.872 21.0099 12.6177 21.1152 12.4302 21.3027C12.2427 21.4902 12.1374 21.7445 12.1374 22.0096C12.1374 22.2748 12.2427 22.5291 12.4302 22.7166C12.6177 22.9041 12.872 23.0094 13.1372 23.0094ZM13.1372 33.0068H30.3828C30.6479 33.0068 30.9022 32.9015 31.0897 32.714C31.2772 32.5265 31.3825 32.2723 31.3825 32.0071C31.3825 31.742 31.2772 31.4877 31.0897 31.3002C30.9022 31.1127 30.6479 31.0074 30.3828 31.0074H13.1372C12.872 31.0074 12.6177 31.1127 12.4302 31.3002C12.2427 31.4877 12.1374 31.742 12.1374 32.0071C12.1374 32.2723 12.2427 32.5265 12.4302 32.714C12.6177 32.9015 12.872 33.0068 13.1372 33.0068ZM13.1372 43.0043H31.6325C31.8976 43.0043 32.1519 42.899 32.3394 42.7115C32.5269 42.524 32.6322 42.2697 32.6322 42.0046C32.6322 41.7394 32.5269 41.4851 32.3394 41.2976C32.1519 41.1101 31.8976 41.0048 31.6325 41.0048H13.1372C12.872 41.0048 12.6177 41.1101 12.4302 41.2976C12.2427 41.4851 12.1374 41.7394 12.1374 42.0046C12.1374 42.2697 12.2427 42.524 12.4302 42.7115C12.6177 42.899 12.872 43.0043 13.1372 43.0043Z" fill="#131624"/>
</g>
<defs>
<clipPath id="clip0_206_828">
<rect width="60" height="60" fill="white"/>
</clipPath>
</defs>
</svg>
