<svg width="40" height="40" viewBox="0 0 40 40" fill="none" xmlns="http://www.w3.org/2000/svg">
<g clip-path="url(#clip0_202_269)">
<path d="M37.0076 34.7661L32.8897 34.4891C32.7526 34.4794 32.616 34.5139 32.4998 34.5875C32.3837 34.6611 32.2941 34.7699 32.2443 34.898L30.7349 38.7437C30.1434 40.2505 28.0879 40.4495 27.2195 39.0811L20.9067 29.1313C20.6936 28.8187 20.7818 28.3931 21.0999 28.1912C21.6095 27.8679 21.9258 28.426 23.1713 28.426C24.4548 28.426 25.6402 27.7844 26.3422 26.7097C27.0289 25.6571 28.0791 24.8941 29.2923 24.5662C30.9399 24.1194 32.0907 22.6166 32.0907 20.9118C32.0907 20.7536 32.0797 20.6523 32.0797 20.4669C32.0797 19.302 32.4817 18.1609 33.2118 17.2537C34.3215 15.8767 34.3215 13.8785 33.2121 12.5019C32.4238 11.5233 32.0229 10.2889 32.086 9.03388C32.1664 7.23859 31.0177 5.65625 29.2922 5.18911C28.0786 4.86164 27.0282 4.09836 26.3419 3.0452C25.375 1.56486 23.4743 0.947123 21.8232 1.5777C20.649 2.02483 19.3514 2.02492 18.1771 1.57795C16.5255 0.947706 14.6247 1.56486 13.6575 3.04561C12.9711 4.09864 11.9207 4.86179 10.7071 5.18919C9.0596 5.63524 7.90889 7.13792 7.90889 8.84353C7.90889 8.99538 7.91997 9.10581 7.91997 9.29166C7.91997 10.454 7.51793 11.594 6.78793 12.5015C5.67805 13.8785 5.67805 15.8768 6.78759 17.2534C7.56977 18.2256 7.96964 19.4558 7.91389 20.7176C7.83371 22.5103 8.98009 24.0977 10.7077 24.5663C11.9213 24.8938 12.9716 25.657 13.6578 26.7102C14.0141 27.2556 14.505 27.6999 15.0831 28.0001C15.2401 28.0815 15.3584 28.2219 15.4119 28.3904C15.4654 28.559 15.4498 28.7419 15.3684 28.8989C15.2871 29.0559 15.1467 29.1742 14.9781 29.2277C14.8096 29.2812 14.6267 29.2655 14.4696 29.1842C13.6874 28.778 13.0232 28.1769 12.5411 27.4391C12.0335 26.6602 11.2567 26.0957 10.3591 25.8536C9.24262 25.5507 8.30552 24.903 7.64286 24.0444L2.31283 32.4439C2.02696 32.8945 2.37742 33.4734 2.90223 33.4355L7.02012 33.1585C7.44002 33.1291 7.8583 33.2348 8.21385 33.4601C8.56941 33.6854 8.84359 34.0185 8.99635 34.4107L10.5059 38.2565C10.6994 38.7495 11.3694 38.815 11.6539 38.3666L15.4687 32.3539C15.5636 32.2049 15.7137 32.0996 15.8861 32.0612C16.0585 32.0228 16.2391 32.0544 16.3883 32.1491C16.5374 32.2437 16.6429 32.3936 16.6816 32.566C16.7203 32.7383 16.689 32.919 16.5946 33.0683L12.7799 39.081C11.9103 40.4515 9.85519 40.2483 9.26454 38.7436L7.75504 34.8978C7.70512 34.7698 7.61558 34.661 7.49948 34.5875C7.38339 34.5139 7.24682 34.4794 7.10971 34.4889L2.99174 34.766C1.37414 34.874 0.318519 33.0978 1.18679 31.7293L6.90486 22.7179C6.66533 22.0784 6.54898 21.3815 6.58132 20.6584C6.62332 19.7074 6.33537 18.819 5.74856 18.0897C4.24389 16.2227 4.2333 13.5456 5.74889 11.6651C6.29387 10.9877 6.62282 10.1071 6.58115 9.09389C6.47864 6.5926 8.11608 4.50895 10.3586 3.90196C11.2561 3.65987 12.0329 3.09548 12.5405 2.3167C13.8487 0.314301 16.4188 -0.520545 18.6517 0.331969C19.5202 0.662403 20.4799 0.662285 21.3483 0.331636C23.5808 -0.520295 26.1505 0.314384 27.4585 2.31645C27.966 3.09534 28.7429 3.65983 29.6405 3.90196C31.9734 4.53345 33.5267 6.6697 33.418 9.09689C33.3716 10.0298 33.6673 10.9409 34.2505 11.6654C35.7526 13.5291 35.7689 16.2059 34.2502 18.0902C33.7092 18.7643 33.4139 19.6026 33.4131 20.4669C33.4131 20.6133 33.4241 20.7284 33.4241 20.9118C33.4241 23.2171 31.8685 25.2492 29.6409 25.8532C28.7434 26.0958 27.9665 26.6602 27.4585 27.4388C26.4708 28.9508 24.7588 29.8524 22.8796 29.7518L28.3454 38.3665C28.629 38.8133 29.2996 38.7507 29.4934 38.2564L31.0029 34.4106C31.3199 33.6033 32.1132 33.0998 32.9793 33.1585L37.097 33.4354C37.6262 33.4698 37.971 32.8924 37.6865 32.4438L34.3242 27.1452C34.2295 26.9959 34.198 26.8151 34.2366 26.6425C34.2751 26.4699 34.3807 26.3198 34.53 26.225C34.6039 26.1781 34.6864 26.1461 34.7726 26.1311C34.8589 26.116 34.9473 26.1181 35.0328 26.1372C35.1182 26.1563 35.1991 26.1921 35.2707 26.2424C35.3423 26.2928 35.4033 26.3568 35.4502 26.4308L38.8124 31.7294C39.6784 33.0941 38.631 34.8725 37.0076 34.7661ZM13.9559 17.2211C13.7791 17.2211 13.6095 17.2913 13.4845 17.4164C13.3594 17.5414 13.2892 17.711 13.2892 17.8878V19.2155C13.2892 21.2556 14.9489 22.9153 16.989 22.9153H21.7658C24.5556 22.9153 26.7947 20.6504 26.7947 17.8863V14.5867C26.7947 13.1799 25.6502 12.0353 24.2433 12.0353H21.6904V9.67029C21.6904 8.10419 20.4162 6.83005 18.8501 6.83005H17.6468C17.47 6.83005 17.3004 6.90029 17.1754 7.02533C17.0503 7.15037 16.9801 7.31996 16.9801 7.49679V10.6964C16.9806 11.1606 16.8443 11.6147 16.5882 12.0019C16.3321 12.3892 15.9677 12.6924 15.5403 12.8737C15.3794 12.9441 15.2527 13.0752 15.1878 13.2385C15.1229 13.4017 15.1251 13.584 15.1939 13.7457C15.2627 13.9074 15.3925 14.0353 15.5551 14.1018C15.7178 14.1683 15.9001 14.1679 16.0624 14.1007C16.7306 13.8172 17.3005 13.3431 17.7008 12.7376C18.1012 12.1322 18.3143 11.4222 18.3136 10.6963V8.16353H18.8501C19.681 8.16353 20.3569 8.83944 20.3569 9.67029V12.702C20.3569 12.8788 20.4271 13.0484 20.5522 13.1734C20.6772 13.2985 20.8468 13.3687 21.0236 13.3687H24.2433C24.9149 13.3687 25.4612 13.9151 25.4612 14.5866V17.8862C25.4612 19.9198 23.8132 21.5817 21.7658 21.5817H16.989C15.6842 21.5817 14.6227 20.5202 14.6227 19.2154V17.8877C14.6226 17.7109 14.5524 17.5413 14.4273 17.4163C14.3023 17.2913 14.1327 17.2211 13.9559 17.2211Z" fill="#F9FAFF"/>
</g>
<defs>
<clipPath id="clip0_202_269">
<rect width="40" height="40" fill="white"/>
</clipPath>
</defs>
</svg>
